<?xml version="1.0" encoding="UTF-8" standalone="no"?>
<!-- Created with Inkscape (http://www.inkscape.org/) -->

<svg
   width="114.62949mm"
   height="115.07106mm"
   viewBox="0 0 114.62949 115.07106"
   version="1.1"
   id="svg1"
   xml:space="preserve"
   xmlns="http://www.w3.org/2000/svg"
   xmlns:svg="http://www.w3.org/2000/svg"><defs
     id="defs1" /><g
     id="layer1"
     transform="translate(-9.8144983,-135.61129)"><path
       style="fill:#ffffff"
       d="m 64.326473,250.65629 c -4.82796,-0.6745 -14.59024,-5.38843 -20.6273,-9.96034 -9.779156,-7.40584 -17.341299,-18.4943 -20.530293,-30.10382 -0.615742,-2.2416 -0.556832,-2.63335 0.596061,-3.96383 0.5607,-0.64707 0.5607,-0.64707 -0.854324,-0.72753 -4.535612,-0.2579 -9.862941,-3.65627 -12.711004,-8.10851 -0.5843641,-0.9135 -0.5676601,-0.93588 0.496863,-0.66554 5.447103,1.38331 8.797341,0.0531 14.883105,-5.90944 1.800225,-1.76376 3.375923,-3.18389 4.108896,-3.70322 1.426779,-1.01091 1.41412,-0.95715 0.340037,-1.44416 -2.771821,-1.2568 -5.615587,-1.26867 -9.267947,-0.0387 -1.600896,0.53913 -1.572165,0.56255 -0.840637,-0.68524 3.874026,-6.60804 9.880247,-10.08074 19.330067,-11.17633 2.439945,-0.28289 2.370585,-0.18956 0.763129,-1.02679 -5.513615,-2.87171 -7.988087,-7.36589 -7.317252,-13.28972 0.175982,-1.554 0.185999,-1.56714 0.697477,-0.9146 4.730253,6.03481 9.432362,7.03001 22.315112,4.72297 2.24309,-0.40169 2.25741,-0.41468 1.07296,-0.97331 -4.23482,-1.99732 -6.60279,-4.97638 -7.02365,-8.83623 -0.1022,-0.9373 -0.0301,-0.98009 0.5795,-0.34378 2.68322,2.80091 6.1139,3.51881 13.47082,2.81886 6.5584,-0.62397 10.61281,0.4777 13.89618,3.77588 1.09519,1.10013 1.09519,1.10013 1.31877,0.29185 1.18476,-4.2832 5.3015,-8.69643 9.39391,-10.07046 1.07305,-0.36028 1.00594,-0.546 1.09924,3.04167 0.11393,4.38047 0.35246,9.88343 0.45496,10.49601 0.13449,0.80369 0.33804,0.71252 2.35105,-1.053 2.42036,-2.12279 9.257607,-7.98406 16.066297,-13.77292 2.95798,-2.51492 6.28207,-5.3414 7.38687,-6.28104 6.08342,-5.17408 8.57604,-7.22864 8.66362,-7.14105 0.10081,0.1008 -1.27294,2.12438 -8.70816,12.82742 -1.13885,1.63936 -3.30387,4.75934 -4.81118,6.93329 -1.5073,2.17394 -4.31022,6.19784 -6.22871,8.942 -6.189977,8.854 -5.622697,7.49673 -3.89666,9.32313 2.84331,3.00863 3.37365,3.96753 3.40352,6.15389 0.0471,3.44345 0.15946,3.66416 6.0983,11.97409 1.23902,1.73371 3.90315,5.35011 5.92028,8.03644 4.53221,6.03582 4.482,5.93474 4.32274,8.70407 -0.0348,0.60585 -0.025,1.47006 0.022,1.92046 0.4382,4.20589 -2.11122,8.48418 -5.57244,9.35134 -0.60082,0.15053 -1.87969,0.54454 -2.84192,0.87559 -4.6968,1.61587 -8.40266,0.16876 -9.92335,-3.875 -0.82375,-2.19048 -1.16087,-2.46822 -7.290797,-6.00673 -4.84085,-2.79439 -4.91828,-2.81974 -8.70469,-2.85014 -6.51159,-0.0523 -11.43132,-3.01768 -14.24175,-8.58431 -0.49304,-0.97657 -0.4679,-0.65301 0.0831,1.06915 0.4874,1.52346 1.06419,2.71231 1.91766,3.95262 0.9445,1.37262 0.94532,1.46256 0.0313,3.43425 -2.02576,4.36979 -2.44826,7.57947 -1.80981,13.74912 1.25363,12.11449 0.0431,18.58185 -4.93406,26.36028 -1.64638,2.57302 -1.982,2.88627 -2.94782,2.75134 z"
       id="path1" /></g></svg>
